<svg id="visual" viewBox="0 0 900 600" width="900" height="600" xmlns="http://www.w3.org/2000/svg" xmlns:xlink="http://www.w3.org/1999/xlink" version="1.1"><rect x="0" y="0" width="900" height="600" fill="#ffffff"></rect><defs><linearGradient id="grad1_0" x1="33.3%" y1="0%" x2="100%" y2="100%"><stop offset="20%" stop-color="#ffffff" stop-opacity="1"></stop><stop offset="80%" stop-color="#ffffff" stop-opacity="1"></stop></linearGradient></defs><defs><linearGradient id="grad2_0" x1="0%" y1="0%" x2="66.7%" y2="100%"><stop offset="20%" stop-color="#ffffff" stop-opacity="1"></stop><stop offset="80%" stop-color="#ffffff" stop-opacity="1"></stop></linearGradient></defs><g transform="translate(900, 0)"><path d="M0 243.4C-31.4 239.8 -62.8 236.2 -93.1 224.8C-123.5 213.5 -152.8 194.5 -169 169C-185.2 143.5 -188.4 111.5 -198.6 82.3C-208.9 53 -226.1 26.5 -243.4 0L0 0Z" fill="#0D9488"></path></g><g transform="translate(0, 600)"><path d="M0 -243.4C32.8 -241.6 65.6 -239.8 93.1 -224.8C120.7 -209.9 143 -181.8 154.1 -154.1C165.3 -126.5 165.3 -99.5 178.3 -73.9C191.3 -48.3 217.3 -24.1 243.4 0L0 0Z" fill="#0D9488"></path></g></svg>